<?xml version="1.0" standalone="no"?>
<!DOCTYPE svg PUBLIC "-//W3C//DTD SVG 20010904//EN"
 "http://www.w3.org/TR/2001/REC-SVG-20010904/DTD/svg10.dtd">
<svg version="1.0" xmlns="http://www.w3.org/2000/svg"
 width="1000.000000pt" height="1000.000000pt" viewBox="0 0 1000.000000 1000.000000"
 preserveAspectRatio="xMidYMid meet">
<metadata>
Created by potrace 1.11, written by Peter Selinger 2001-2013
</metadata>
<g transform="translate(0.000000,1000.000000) scale(0.100000,-0.100000)"
fill="#000000" stroke="none">
<path d="M4410 9266 c-218 -58 -374 -181 -495 -391 -10 -16 -15 -14 -55 23
-25 23 -48 42 -52 42 -4 0 -23 10 -41 23 -34 23 -162 70 -222 82 -160 30 -347
30 -460 0 -134 -37 -235 -117 -271 -213 -10 -26 -18 -48 -19 -50 -1 -1 -22 5
-46 14 -44 16 -153 21 -217 9 -18 -3 -55 -14 -82 -24 -110 -42 -179 -99 -222
-181 l-23 -45 -67 -1 c-55 0 -74 -5 -107 -27 -76 -50 -125 -118 -162 -224 -29
-80 -30 -86 -36 -194 -7 -128 18 -219 77 -279 37 -38 39 -42 26 -63 -18 -27
-53 -131 -61 -178 -3 -19 -8 -46 -11 -60 -3 -15 -5 -67 -6 -115 -1 -166 25
-266 87 -331 l41 -42 -15 -38 c-8 -22 -15 -85 -17 -148 -5 -157 29 -278 98
-352 28 -29 29 -34 20 -76 -13 -63 -7 -219 13 -300 71 -303 246 -484 453 -472
26 2 42 -2 43 -9 0 -6 3 -47 6 -91 11 -138 5 -277 -12 -304 -3 -6 -8 -29 -11
-53 -3 -24 -15 -74 -25 -113 -20 -70 -23 -90 -34 -195 -3 -30 -9 -71 -13 -90
-10 -39 -6 -84 9 -113 6 -10 9 -20 7 -21 -2 -2 -25 -17 -51 -36 -56 -37 -103
-104 -112 -160 -14 -81 45 -199 116 -236 34 -17 100 -22 142 -11 28 8 29 7 24
-25 -3 -18 -11 -58 -17 -88 -6 -30 -13 -66 -16 -80 -3 -14 -7 -33 -10 -42 -3
-9 -6 -25 -8 -35 -2 -10 -30 -122 -61 -248 -60 -244 -84 -355 -91 -420 -3 -22
-7 -56 -9 -75 -2 -19 -4 -37 -5 -40 0 -3 -26 -6 -58 -6 -308 -7 -451 -562
-206 -798 101 -96 415 -218 779 -300 126 -28 242 -52 300 -60 33 -5 96 -17
115 -21 3 -1 28 -5 55 -10 70 -11 84 -13 103 -19 9 -3 44 -8 77 -11 33 -3 87
-10 120 -15 33 -5 85 -12 115 -16 30 -3 66 -8 80 -10 14 -1 59 -6 100 -9 41
-3 109 -10 151 -15 135 -16 329 -25 554 -25 282 0 483 12 685 40 14 2 54 7 90
10 128 13 388 55 560 91 69 14 139 28 155 30 161 25 755 196 883 254 23 11 63
30 90 42 114 52 279 181 344 268 50 68 92 158 115 245 3 11 7 64 8 119 3 81 0
109 -18 159 -42 114 -134 187 -240 189 l-53 1 -18 66 c-10 36 -32 107 -48 158
-16 50 -31 99 -33 110 -2 10 -22 89 -44 175 -23 86 -41 166 -41 177 0 16 13
24 68 40 61 18 300 76 362 88 14 2 43 9 65 14 50 12 75 18 100 23 11 2 49 12
85 21 36 9 72 18 80 20 430 90 893 428 1138 833 86 142 151 326 178 506 3 22
7 43 9 46 3 5 5 28 24 220 5 41 7 158 5 260 -3 175 -6 221 -19 315 -3 22 -8
58 -10 80 -49 380 -223 793 -427 1011 -194 206 -526 307 -893 268 -68 -7 -248
-42 -280 -54 -15 -6 -28 -10 -30 -10 -2 0 -4 38 -4 85 0 47 -3 90 -6 95 -4 6
-9 22 -11 37 -6 34 -50 136 -77 182 -13 20 -28 48 -34 62 -36 82 -160 113
-348 87 -16 -3 -21 6 -31 62 -48 256 -236 474 -416 482 -19 1 -28 6 -28 18 0
25 -58 82 -110 108 -73 36 -186 59 -298 61 -126 2 -200 -12 -289 -54 -37 -19
-68 -33 -68 -32 -1 19 -58 108 -91 141 -188 194 -675 332 -855 243 l-48 -23
-38 20 c-97 50 -280 60 -423 22z m3622 -2265 c138 -36 271 -107 350 -186 78
-78 141 -249 173 -465 15 -104 19 -171 19 -325 1 -232 -9 -318 -55 -495 -47
-178 -91 -252 -229 -391 -176 -176 -314 -271 -459 -318 -181 -59 -819 -170
-822 -144 0 5 -2 15 -4 23 -1 8 -6 65 -9 125 -4 61 -9 128 -11 150 -2 22 -7
92 -10 155 -4 63 -8 131 -10 150 -2 19 -6 80 -10 135 -4 55 -8 118 -10 141 -2
22 -6 94 -10 160 -3 65 -8 139 -10 164 -3 25 -7 86 -10 135 -3 50 -8 117 -10
150 -4 65 -13 205 -20 325 l-4 75 66 40 c36 22 77 47 92 55 15 8 52 32 83 53
31 20 59 37 61 37 3 0 34 17 68 38 182 110 388 204 505 231 59 13 189 5 276
-18z"/>
</g>
</svg>
